<svg xmlns="http://www.w3.org/2000/svg" xml:space="preserve" viewBox="0 0 1200 1200"><path fill="#FFF4E6" d="m1076.655 816.31-.288-43.561-.577-87.122-1.153-174.243-.288-43.561-.145-21.793c-.097-3.735.013-8.329-2.386-13.474a17.714 17.714 0 0 0-5.563-6.596c-.335-.241-.688-.432-1.034-.643-.638-1.044-1.495-1.973-2.608-2.658-59.216-36.397-123.435-64.634-190.354-83.275 1.005-5.435.862-11.109-.482-16.455-1.919-7.955-6.462-15.335-12.8-20.615-6.282-5.352-13.896-8.508-21.348-10.591-7.503-2.068-15.01-3.203-22.274-4.595-3.558-.693-7.395-1.428-10.535-2.348-3.182-1.002-4.68-2.304-5.123-4.616-.462-2.426.479-5.918 1.467-9.508 1.043-3.574 1.964-8.142 1.213-12.45-.658-4.293-2.859-8.822-6.796-11.523-3.058-2.154-7.111-3.275-11.022-2.439.006-.052.016-.104.022-.156.907-7.031.599-14.123-.228-21.037-.906-6.926-2.303-13.622-4.458-20.571-2.251-6.809-5.513-13.363-9.908-19.162-4.429-5.777-9.763-10.762-15.756-14.692-11.903-7.931-26.414-11.877-40.629-10.754-2.62.19-5.204.608-7.763 1.131 1.683-6.983 3.734-13.832 6.291-20.495 4.692-12.178 10.732-23.851 18.446-34.37 7.665-10.545 16.86-20.032 27.169-28.182 10.283-8.199 21.685-15.076 33.874-20.474L789.597 50c-26.638 8.068-50.793 25.007-67.84 47.591-8.489 11.306-15.328 23.913-19.692 37.362a119.32 119.32 0 0 0-4.331 17.895c-2.071-1.532-4.228-2.96-6.515-4.203-6.242-3.385-13.125-5.669-20.172-6.739-14.149-2.108-28.58.461-41.374 5.953-6.38 2.752-12.542 6.158-18.255 10.445a90.114 90.114 0 0 0-15.263 14.607c-8.919 10.885-15.36 23.501-19.463 36.796-3.628 11.912-5.05 24.58-4.151 37.115-8.879-1.777-17.775-3.49-26.709-5.055-14.829-2.612-29.718-4.991-44.772-6.741-15.06-1.735-30.196-3.157-45.782-2.971a7.753 7.753 0 0 0-6.547 3.765l-.06.101c-12.288 20.546-25.161 40.821-38.24 60.976-13.04 20.183-26.309 40.241-39.719 60.216-26.819 39.951-54.136 79.605-81.606 119.166l-82.695 118.566c-13.774 19.785-27.529 39.59-41.13 59.553-6.799 9.985-13.557 20.007-20.205 30.172-3.319 5.091-6.613 10.208-9.839 15.463a246.527 246.527 0 0 0-4.776 8.075c-.569 1.044-1.134 2.076-1.699 3.161-.33.379-.697.718-1.006 1.116-1.23 1.674-2.092 3.498-2.781 5.351-.153.333-.298.711-.434 1.129-.101.318-.192.631-.279.949a27.536 27.536 0 0 0-.725 3.753c-.24 1.831-.335 3.631-.22 4.888l.07-.019c.352 8.179 2.899 15.099 5.571 21.641 2.978 7.066 6.545 13.668 9.936 20.027 1.759 3.201 3.117 6.079 4.343 9.232.676 1.531 1.285 3.093 1.745 4.72.49 1.613 1.07 3.192 1.497 4.829 1.737 6.548 2.723 13.355 3.326 20.251.46 6.932.525 13.952.271 21.034-.543 14.183-2.157 28.524-3.32 43.155-.6 7.271-1.03 14.783-1.149 22.109a971.22 971.22 0 0 0-.275 21.914c-.027 14.596.158 29.177.495 43.718.626 29.089 1.626 58.068 1.577 86.955-.067 14.438-.246 28.865-1.013 43.234a656.258 656.258 0 0 1-1.394 21.524l-.94 10.733c-.378 4.005-.511 8.281.504 12.933.538 2.327 1.385 4.852 3.151 7.35 1.706 2.494 4.696 4.757 7.823 5.6 3.259.99 6.364.585 8.644.08 2.38-.554 4.047-1.169 5.766-1.692l20.765-6.575 41.53-13.15 664.477-210.391 83.06-26.299 41.53-13.149 20.765-6.575c6.823-2.225 14.565-4.312 21.823-9.597 3.576-2.614 6.902-6.31 8.965-10.551 2.074-4.214 3.002-8.584 3.458-12.659.438-4.088.432-7.965.412-11.635l-.075-10.892z"/><path fill="#EF3E00" d="m1076.655 816.31-.288-43.561-.577-87.122-1.153-174.243-.288-43.561-.145-21.793c-.097-3.735.013-8.329-2.386-13.474a17.714 17.714 0 0 0-5.563-6.596c-.335-.241-.688-.432-1.034-.643-.638-1.044-1.495-1.973-2.608-2.658-59.216-36.397-123.435-64.634-190.354-83.275v.002c1.006-5.436.863-11.11-.481-16.457-1.919-7.955-6.462-15.335-12.8-20.615-6.282-5.352-13.896-8.508-21.348-10.591-7.503-2.068-15.01-3.203-22.274-4.595-3.558-.693-7.395-1.428-10.535-2.348-3.182-1.002-4.68-2.304-5.123-4.616-.462-2.426.479-5.918 1.467-9.508 1.043-3.574 1.964-8.142 1.213-12.45-.658-4.293-2.859-8.822-6.796-11.523-3.058-2.154-7.111-3.275-11.022-2.439.006-.052.016-.104.022-.156.907-7.031.599-14.123-.228-21.037-.906-6.926-2.303-13.622-4.458-20.571-2.251-6.809-5.513-13.363-9.908-19.162-4.429-5.777-9.763-10.762-15.756-14.692-11.903-7.931-26.414-11.877-40.629-10.754-2.62.19-5.204.608-7.763 1.131 1.683-6.983 3.734-13.832 6.291-20.495 4.692-12.178 10.732-23.851 18.446-34.37 7.665-10.545 16.86-20.032 27.169-28.182 10.283-8.199 21.685-15.076 33.874-20.474L789.597 50c-26.638 8.068-50.793 25.007-67.84 47.591-8.489 11.306-15.328 23.913-19.692 37.362a119.32 119.32 0 0 0-4.331 17.895c-2.071-1.532-4.228-2.96-6.515-4.203-6.242-3.385-13.125-5.669-20.172-6.739-14.149-2.108-28.58.461-41.374 5.953-6.38 2.752-12.542 6.158-18.255 10.445a90.114 90.114 0 0 0-15.263 14.607c-8.919 10.885-15.36 23.501-19.463 36.796-3.628 11.911-5.05 24.58-4.151 37.115-8.879-1.777-17.775-3.49-26.709-5.055-14.829-2.612-29.718-4.991-44.772-6.741-15.06-1.735-30.196-3.157-45.782-2.971a7.753 7.753 0 0 0-6.547 3.765l-.06.101c-12.288 20.546-25.161 40.821-38.24 60.976-13.04 20.183-26.309 40.241-39.719 60.216-26.819 39.951-54.136 79.605-81.606 119.166l-82.695 118.566c-13.774 19.785-27.529 39.59-41.13 59.553-6.799 9.985-13.557 20.007-20.205 30.172-3.319 5.091-6.613 10.208-9.839 15.463a246.527 246.527 0 0 0-4.776 8.075c-.569 1.044-1.134 2.076-1.699 3.161-.33.379-.697.718-1.006 1.116-1.23 1.674-2.092 3.498-2.781 5.351-.153.333-.298.711-.434 1.129-.101.318-.192.631-.279.949a27.536 27.536 0 0 0-.725 3.753c-.24 1.831-.335 3.631-.22 4.888l.07-.019c.352 8.179 2.899 15.099 5.571 21.641 2.978 7.066 6.545 13.668 9.936 20.027 1.759 3.201 3.117 6.079 4.343 9.232.676 1.531 1.285 3.093 1.745 4.72.49 1.613 1.07 3.192 1.497 4.829 1.737 6.548 2.723 13.355 3.326 20.251.46 6.932.525 13.952.271 21.034-.543 14.183-2.157 28.524-3.32 43.155-.6 7.271-1.03 14.783-1.149 22.109a971.22 971.22 0 0 0-.275 21.914c-.027 14.596.158 29.177.495 43.718.626 29.089 1.626 58.068 1.577 86.955-.067 14.438-.246 28.865-1.013 43.234a656.258 656.258 0 0 1-1.394 21.524l-.94 10.733c-.378 4.005-.511 8.281.504 12.933.538 2.327 1.385 4.852 3.151 7.35 1.706 2.494 4.696 4.757 7.823 5.6 3.259.99 6.364.585 8.644.08 2.38-.554 4.047-1.169 5.766-1.692l20.765-6.575 41.53-13.15 664.477-210.391 83.06-26.299 41.53-13.149 20.765-6.575c6.823-2.225 14.565-4.312 21.823-9.597 3.576-2.614 6.902-6.31 8.965-10.551 2.074-4.214 3.002-8.584 3.458-12.659.438-4.088.432-7.965.412-11.635l-.075-10.892zM764.636 476.738c5.331 5.812 7.784 8.808 1.816 13.866-16.268 4.288-32.71 7.679-49.11 11.017a578.291 578.291 0 0 1-24.608 4.289c-1.976.237-4.227.633-5.83.633-1.682.071-2.771-.45-2.56-.568.018-.094.158.057.168-.068.035-.102.079-.403.243-.722.154-.325.363-.626.592-.833.334-.334.779-.669 1.356-1.013 1.163-.692 2.859-1.338 4.861-2.103l5.881-2.262 11.762-4.524 23.374-9.399c3.878-1.613 7.741-2.96 12.095-5.136 3.559-1.831 7.442-4.44 10.589-8.113.442.312.94.526 1.383.825 1.203.67 2.391 1.38 3.629 1.992m110.998-131.166c.046-.152.085-.306.129-.459-.043.153-.083.307-.129.459zM512.106 490.604c.712-8.574-3.09-17.533-9.769-23.54-3.28-3.021-7.286-5.525-11.715-6.872-4.216-1.37-8.5-2.308-12.652-3.247-8.182-1.89-16.512-3.825-21.72-8.448-2.567-2.233-4.009-5.065-4.26-7.835-.234-2.703.81-4.69 2.899-6.272 2.135-1.592 5.541-2.57 9.045-2.873 3.39-.332 7.383.152 11.917.259 4.463.12 9.54.138 14.945-1.654 3.592-1.126 7.036-3.355 9.794-6.131 9.231-4.327 18.6-8.917 27.303-14.65 9.041-5.91 17.184-13.221 23.326-21.717-7.997 6.812-17.146 11.663-26.691 15.057-5.248 1.881-10.623 3.365-16.078 4.676.162-1.155.289-2.314.328-3.473.193-5.462-.917-10.528-2.513-15.169-3.259-9.288-8.44-16.789-12.421-23.845-4.082-7.107-7.072-13.569-7.318-20.558-.211-3.962.331-7.979 1.509-11.782 3.833-1.271 7.694-2.287 11.585-2.899 5.076-.79 10.202-.864 15.271.007 5.118.853 9.848 2.859 15.123 4.954 5.183 2.181 10.461 4.824 15.949 6.52-4.683-3.326-8.66-7.29-13.065-11.12-4.238-4.037-9.772-7.106-15.61-9.206-5.876-2.09-12.177-3.087-18.401-3.18-.437-.006-.87.021-1.307.022 3.049-2.778 6.561-5.096 10.415-6.62 6.561-2.651 14.123-2.875 22.083-1.977 7.956.92 16.304 3.062 24.951 4.356 8.591 1.299 17.215 2.256 25.852 2.772 10.112.497 20.224.398 30.269-.275 2.47 1.655 5.008 3.212 7.646 4.588a82.86 82.86 0 0 0 20.315 7.421c7.078 1.548 13.64 2.354 20.553 2.864 13.671.939 27.473.122 40.991-2.675 13.498-2.804 26.762-7.629 38.831-14.945 12.063-7.266 22.785-17.256 30.651-29.218a93.835 93.835 0 0 0 9.65-19.052c1.702-4.737 2.96-9.603 3.85-14.514v.001c.236-.037.474-.054.704-.155 2.312-1.003 5.417-.336 7.667 1.411 2.244 1.673 3.536 4.463 3.902 7.525.419 3.153-.176 6.114-1.282 9.673-.955 3.557-2.524 7.43-1.88 12.506.386 2.524 1.645 5.125 3.635 6.933 1.978 1.81 4.219 2.744 6.237 3.406 4.038 1.207 7.57 1.863 11.346 2.641 7.421 1.469 14.733 2.658 21.659 4.612 6.926 1.879 13.466 4.62 18.658 8.99 5.223 4.253 8.896 10.254 10.685 16.789 3.703 12.716-1.752 27.323-12.649 35.178-2.137-4.226-3.923-8.529-4.839-12.993-.933-4.779-1.274-9.753.111-14.559a23.035 23.035 0 0 1 8.505-12.612c-5.21 1.704-9.719 5.827-12.51 10.97-1.913 3.67-3.029 7.804-3.389 11.982-5.432 1.735-10.934 3.036-16.894 3.753-3.483.462-7.176.881-10.766 1.713-3.595.829-7.006 2.08-10.231 3.555 3.547-.274 7.056-.26 10.45.17 3.401.427 6.709 1.233 10.211 2.016 5.842 1.393 12.158 2.205 18.446 2.509.664 2.847 1.524 5.622 2.491 8.304 1.979 5.291 4.371 10.303 6.525 15.122 2.12 4.846 4.194 9.512 5.531 14.145 1.331 4.582 1.991 9.28 1.475 13.303-.01.11-.041.217-.053.327-22.846 1.967-46.787-1.951-68.643-11.912l-.316.558c18.366 12.64 40.191 20.949 63.203 23.935-.725.669-1.482 1.258-2.282 1.704-1.4.803-2.834 1.184-5.327 1.725-2.403.539-5.453.954-9.09 2.415-1.804.741-3.772 1.832-5.525 3.384-1.76 1.525-3.227 3.545-4.184 5.563-1.903 4.138-2.076 8.036-1.906 11.427.202 3.49.922 6.443 1.367 8.865.507 2.454.83 4.511.735 6.085-.067 1.522-.498 2.878-1.392 4.378-1.774 3.044-5.077 5.463-9.298 6.999-4.185 1.596-9.329 2.341-14.387 2.815-5.075.46-10.221.404-15.357-.061-5.135-.474-10.268-1.375-15.291-2.775-2.511-.698-5.012-1.478-7.46-2.412-1.241-.431-2.439-.961-3.659-1.454-.281-.091-.54-.219-.799-.345 1.271-2.077 2.3-4.416 2.874-7.026.717-3.161.566-6.72-.349-9.821-1.965-6.356-6.055-10.411-9.499-13.516-1.764-1.584-3.536-2.932-5.174-4.211-1.569-1.235-3.008-2.388-4.385-3.663-2.749-2.504-5.168-5.202-6.956-8.008-3.694-5.718-4.115-11.194-1.522-17.033 1.313-2.904 3.407-5.745 5.9-8.328 2.48-2.571 5.483-4.875 8.774-7.174 6.532-4.552 14.204-9.102 20.849-15.605 6.592-6.365 11.637-14.12 14.991-22.429 1.682-4.197 2.993-8.349 3.793-12.918.891-4.868.139-9.712-1.082-13.936-2.489-8.52-6.291-15.667-6.075-23.742.127-7.968 3.036-16.176 8.672-22.463-6.479 5.38-10.994 13.438-12.11 22.213-.587 4.366-.24 8.976.723 13.205.914 4.247 2.163 8.273 2.861 12.176.178.945.317 1.879.416 2.803l-.136-.195c-11.35 9.043-22.49 18.017-34.469 25.853-5.984 3.9-12.153 7.527-18.639 10.519-6.48 2.96-13.315 5.362-20.546 6.023 7.258.28 14.558-1.245 21.546-3.41 7.007-2.192 13.784-5.078 20.39-8.259 9.969-4.818 19.558-10.376 28.975-16.025-.671 1.533-1.375 3.061-2.151 4.506a62.277 62.277 0 0 1-14.577 17.94c-5.744 4.935-13.03 8.379-20.486 13.055-7.408 4.597-15.359 10.787-20.166 20.03-2.409 4.595-3.841 10.217-3.396 15.822.409 5.592 2.436 10.77 5.09 15.063 2.646 4.29 5.847 7.881 9.214 11.066-24.449-12.513-46.645-30.309-64.389-52.255l-.524.371c18.638 30.266 45.73 55.956 78.096 73.36-3.056 3.831-9.899 6.617-17.151 9.964l-22.905 10.49-11.378 5.42-5.689 2.71c-1.845.897-4.063 1.847-6.399 3.493-.574.411-1.151.871-1.712 1.384-8.142-9.443-15.514-19.598-21.74-30.569-7.503-13.189-13.38-27.462-17.734-42.305l-.628.133c2.034 15.369 5.695 30.689 11.314 45.473.762 2.013 1.679 4.041 2.668 6.074-2.649 8.905-3.783 17.078-8.646 24.837-15.916 3.073-32.111 1.915-47.476-1.485-7.634-1.784-15.226-4.177-21.88-7.564-3.194-1.725-6.128-3.892-7.857-6.25-1.741-2.358-2.097-4.489-1.345-6.488.719-2.056 2.834-4.271 5.327-5.568 2.656-1.437 6.034-2.262 9.853-3.139 7.911-1.786 17.069-4.125 24.933-10.752a27.312 27.312 0 0 0 5.51-6.474c7.224-7.532 14.434-15.504 20.203-24.529 5.914-9.137 9.949-19.506 11.024-29.921-3.538 9.891-9.554 18.328-16.816 25.218-3.646 3.486-7.567 6.649-11.665 9.633a42.053 42.053 0 0 0-.925-3.421c-1.479-4.596-3.489-8.536-5.422-12.237-1.967-3.726-4-7.268-5.909-10.731-3.776-6.948-7.303-13.458-8.818-20.177a36.708 36.708 0 0 1-.937-6.267c1.745-.48 3.837-.628 6.305-.339 3.301.324 7.025 1.274 11.019 2.143 3.956.896 8.527 1.633 12.906 1.536 4.384-.064 8.658-.717 12.735-1.804 8.17-2.164 15.558-5.998 22.224-10.466 6.69-4.476 12.749-9.576 18.785-14.653l-.375-.521c-6.728 4.114-13.472 8.223-20.485 11.508-6.994 3.295-14.287 5.705-21.607 6.487-3.647.4-7.274.379-10.749-.105-3.497-.476-6.654-1.49-10.223-2.872-3.552-1.341-7.287-2.977-11.72-4.15-1.705-.472-3.616-.795-5.603-.987 2.799-4.502 7.683-8.263 13.285-10.661 6.408-2.754 13.885-3.991 21.71-5.001 7.896-.976 15.927-1.707 23.988-2.613 8.059-.964 16.171-2.008 24.25-3.442 16.058-3.046 32.313-7.785 45.873-16.898-15.11 6.022-30.912 8.528-46.807 9.469-7.945.579-15.941.784-23.991.915-8.05.182-16.141.405-24.336.778-8.216.377-16.963 1.263-25.605 4.522-8.54 3.259-17.003 8.946-22.024 18.104-4.89 9.247-4.883 19.662-2.901 28.556 2.031 9.104 6.074 17.105 10.166 24.2 2.044 3.578 4.081 7.01 5.932 10.399 1.861 3.415 3.54 6.701 4.573 9.791 2.08 6.408 1.41 10.633-2.769 14.764-2.114 2.017-5.026 3.771-8.25 5.183-3.306 1.458-6.593 2.44-10.637 3.533-3.975 1.126-8.467 2.542-12.773 5.262-1.281.836-2.482 1.816-3.624 2.875-3.02-2.407-5.782-5.529-8.09-9.182-3.332-5.233-5.839-11.328-7.772-17.653l-.638.074c-.413 6.644-.27 13.465 1.164 20.421.536 2.59 1.351 5.213 2.348 7.816-9.627 11.153-22.99 24.7-36.282 24.213m75.018-199.152c4.964 7.73 11.268 14.674 18.528 20.444l-.005-.003c-8.044-.746-16.037-1.744-23.957-3.115-8.325-1.324-16.568-3.044-24.705-5.092-8.104-1.948-16.195-4.542-25.107-6.273-4.456-.807-9.096-1.436-13.928-1.324-4.795.096-9.806.923-14.496 2.568-9.37 3.269-17.682 9.454-23.456 17.759-5.701 8.385-8.44 18.483-8.081 28.531a47.804 47.804 0 0 0 2.939 14.733c1.691 4.608 3.832 8.797 6.113 12.632 4.549 7.673 9.148 14.376 11.613 21.241 1.23 3.386 1.948 6.809 1.869 9.891-.091 3.165-.788 6.352-2.197 8.849-1.442 2.537-3.239 4.192-5.928 5.245-2.679 1.069-6.291 1.398-10.32 1.424l-6.389.012c-2.171.027-4.852.169-7.256.578-4.679.808-9.569 2.26-13.962 5.738 4.292-12.945 2.903-28.253-4.497-40.829-4.325-7.085-8.402-12.883-7.456-17.929.157-1.214.579-2.197 1.071-2.82.5-.628 1.002-.951 2.023-1.376 2.059-.885 5.725-1.201 10.576-2.697 2.398-.797 5.336-2.23 7.661-4.765 2.39-2.56 3.636-5.806 4.1-8.693.479-2.915.305-5.716-.194-8.271-.487-2.491-1.206-4.662-1.905-6.552-1.455-3.826-2.176-6.318-2.653-9.709-.421-3.255-.467-6.641-.165-9.966.652-6.642 2.518-13.152 6.01-17.703 3.637-4.806 9.53-8.662 15.827-11.941 6.342-3.308 13.324-5.926 20.485-8.181 3.593-1.098 7.204-2.263 10.879-3.296 3.662-1.045 7.469-2.138 10.889-2.722 14.725-2.332 30.325-3.628 45.675-4.738 2.738-.178 5.482-.34 8.222-.516 2.398 10.137 6.42 19.931 12.177 28.866zM573.453 254.8v-.002.002c0-.001 0 0 0 0z"/><path fill="#FFB845" d="M512.106 490.604c.712-8.574-3.09-17.533-9.769-23.54-3.28-3.021-7.286-5.525-11.715-6.872-4.216-1.37-8.5-2.308-12.652-3.247-8.182-1.89-16.512-3.825-21.72-8.448-2.567-2.233-4.009-5.065-4.26-7.835-.234-2.703.81-4.69 2.899-6.272 2.135-1.592 5.541-2.57 9.045-2.873 3.39-.332 7.383.152 11.917.259 4.463.12 9.54.138 14.945-1.654 3.592-1.126 7.036-3.355 9.794-6.131 9.231-4.327 18.6-8.917 27.303-14.65 9.041-5.91 17.184-13.221 23.326-21.717-7.997 6.812-17.146 11.663-26.691 15.057-5.248 1.881-10.623 3.365-16.078 4.676.162-1.155.289-2.314.328-3.473.193-5.462-.917-10.528-2.513-15.169-3.259-9.288-8.44-16.789-12.421-23.845-4.082-7.107-7.072-13.569-7.318-20.558-.211-3.962.331-7.979 1.509-11.782 3.833-1.271 7.694-2.287 11.585-2.899 5.076-.79 10.202-.864 15.271.007 5.118.853 9.848 2.859 15.123 4.954 5.183 2.181 10.461 4.824 15.949 6.52-4.683-3.326-8.66-7.29-13.065-11.12-4.238-4.037-9.772-7.106-15.61-9.206-5.876-2.09-12.177-3.087-18.401-3.18-.437-.006-.87.021-1.307.022 3.049-2.778 6.561-5.096 10.415-6.62 6.561-2.651 14.123-2.875 22.083-1.977 7.956.92 16.304 3.062 24.951 4.356 8.591 1.299 17.215 2.256 25.852 2.772 10.112.497 20.224.398 30.269-.275a83.189 83.189 0 0 1-5.502-3.991c-8.044-.746-16.037-1.744-23.957-3.115-8.325-1.324-16.568-3.044-24.705-5.092-8.104-1.948-16.195-4.542-25.107-6.273-4.456-.807-9.096-1.436-13.928-1.324-4.795.096-9.806.923-14.496 2.568-9.37 3.269-17.682 9.454-23.456 17.759-5.701 8.385-8.44 18.483-8.081 28.531a47.804 47.804 0 0 0 2.939 14.733c1.691 4.608 3.832 8.797 6.113 12.632 4.549 7.673 9.148 14.376 11.613 21.241 1.23 3.386 1.948 6.809 1.869 9.891-.091 3.165-.788 6.352-2.197 8.849-1.442 2.537-3.239 4.192-5.928 5.245-2.679 1.069-6.291 1.398-10.32 1.424l-6.389.012c-2.171.027-4.852.169-7.256.578-4.679.808-9.569 2.26-13.962 5.738 4.292-12.945 2.903-28.253-4.497-40.829-4.325-7.085-8.402-12.883-7.456-17.929.157-1.214.579-2.197 1.071-2.82.5-.628 1.002-.951 2.023-1.376 2.059-.885 5.725-1.201 10.576-2.697 2.398-.797 5.336-2.23 7.661-4.765 2.39-2.56 3.636-5.806 4.1-8.693.479-2.915.305-5.716-.194-8.271-.487-2.491-1.206-4.662-1.905-6.552-1.455-3.826-2.176-6.318-2.653-9.709-.421-3.255-.467-6.641-.165-9.966.652-6.642 2.518-13.152 6.01-17.703 3.637-4.806 9.53-8.662 15.827-11.941 6.342-3.308 13.324-5.926 20.485-8.181 3.593-1.098 7.204-2.263 10.879-3.296 3.662-1.045 7.469-2.138 10.889-2.722 14.725-2.332 30.325-3.628 45.675-4.738 2.738-.178 5.482-.34 8.222-.516a98.306 98.306 0 0 1-1.494-7.786v.002a100.501 100.501 0 0 1-.913-7.979c-8.879-1.777-17.775-3.49-26.709-5.055-14.829-2.612-29.718-4.991-44.772-6.741-15.06-1.735-30.196-3.157-45.782-2.971a7.753 7.753 0 0 0-6.547 3.765l-.06.101c-12.288 20.546-25.161 40.821-38.24 60.976-13.04 20.183-26.309 40.241-39.719 60.216-26.819 39.951-54.136 79.605-81.606 119.166l-82.695 118.566c-13.774 19.785-27.529 39.59-41.13 59.553-6.799 9.985-13.557 20.007-20.205 30.172-3.319 5.091-6.613 10.208-9.839 15.463a246.527 246.527 0 0 0-4.776 8.075c-.569 1.044-1.134 2.076-1.699 3.161-.33.379-.697.718-1.006 1.116-1.23 1.674-2.092 3.498-2.781 5.351-.153.333-.298.711-.434 1.129-.101.318-.192.631-.279.949a27.536 27.536 0 0 0-.725 3.753c-.24 1.831-.335 3.631-.22 4.888l.07-.019c.352 8.179 2.899 15.099 5.571 21.641 2.978 7.066 6.545 13.668 9.936 20.027 1.759 3.201 3.117 6.079 4.343 9.232.676 1.531 1.285 3.093 1.745 4.72.49 1.613 1.07 3.192 1.497 4.829 1.737 6.548 2.723 13.355 3.326 20.251.46 6.932.525 13.952.271 21.034-.543 14.183-2.157 28.524-3.32 43.155-.6 7.271-1.03 14.783-1.149 22.109a971.22 971.22 0 0 0-.275 21.914c-.027 14.596.158 29.177.495 43.718.626 29.089 1.626 58.068 1.577 86.955-.067 14.438-.246 28.865-1.013 43.234a656.258 656.258 0 0 1-1.394 21.524l-.94 10.733c-.378 4.005-.511 8.281.504 12.933.538 2.327 1.385 4.852 3.151 7.35 1.706 2.494 4.696 4.757 7.823 5.6 3.259.99 6.364.585 8.644.08 2.38-.554 4.047-1.169 5.766-1.692l20.765-6.575 41.53-13.15 664.477-210.391 83.06-26.299 41.53-13.149 20.765-6.575c6.823-2.225 14.565-4.312 21.823-9.597 3.576-2.614 6.902-6.31 8.965-10.551 2.074-4.214 3.002-8.584 3.458-12.659.438-4.088.432-7.965.412-11.635l-.072-10.89-.288-43.561-.577-87.122-1.153-174.243-.288-43.561-.145-21.793c-.097-3.735.013-8.329-2.386-13.474a17.714 17.714 0 0 0-5.563-6.596c-.335-.241-.688-.432-1.034-.643-.638-1.044-1.495-1.973-2.608-2.658-59.216-36.397-123.435-64.634-190.354-83.275v.002c1.006-5.436.863-11.11-.481-16.457-1.919-7.955-6.462-15.335-12.8-20.615-6.282-5.352-13.896-8.508-21.348-10.591-7.503-2.068-15.01-3.203-22.274-4.595-3.558-.693-7.395-1.428-10.535-2.348-3.182-1.002-4.68-2.304-5.123-4.616-.462-2.426.479-5.918 1.467-9.508 1.043-3.574 1.964-8.142 1.213-12.45-.658-4.293-2.859-8.822-6.796-11.523-3.058-2.154-7.111-3.275-11.022-2.439a96.336 96.336 0 0 1-.924 6.11c.236-.037.474-.054.704-.155 2.312-1.003 5.417-.336 7.667 1.411 2.244 1.673 3.536 4.463 3.902 7.525.419 3.153-.176 6.114-1.282 9.673-.955 3.557-2.524 7.43-1.88 12.506.386 2.524 1.645 5.125 3.635 6.933 1.978 1.81 4.219 2.744 6.237 3.406 4.038 1.207 7.57 1.863 11.346 2.641 7.421 1.469 14.733 2.658 21.659 4.612 6.926 1.879 13.466 4.62 18.658 8.99 5.223 4.253 8.896 10.254 10.685 16.789 3.703 12.716-1.752 27.323-12.649 35.178-2.137-4.226-3.923-8.529-4.839-12.993-.933-4.779-1.274-9.753.111-14.559a23.035 23.035 0 0 1 8.505-12.612c-5.21 1.704-9.719 5.827-12.51 10.97-1.913 3.67-3.029 7.804-3.389 11.982-5.432 1.735-10.934 3.036-16.894 3.753-3.483.462-7.176.881-10.766 1.713-3.595.829-7.006 2.08-10.231 3.555 3.547-.274 7.056-.26 10.45.17 3.401.427 6.709 1.233 10.211 2.016 5.842 1.393 12.158 2.205 18.446 2.509.664 2.847 1.524 5.622 2.491 8.304 1.979 5.291 4.371 10.303 6.525 15.122 2.12 4.846 4.194 9.512 5.531 14.145 1.331 4.582 1.991 9.28 1.475 13.303-.01.11-.041.217-.053.327-22.846 1.967-46.787-1.951-68.643-11.912l-.316.558c18.366 12.64 40.191 20.949 63.203 23.935-.725.669-1.482 1.258-2.282 1.704-1.4.803-2.834 1.184-5.327 1.725-2.403.539-5.453.954-9.09 2.415-1.804.741-3.772 1.832-5.525 3.384-1.76 1.525-3.227 3.545-4.184 5.563-1.903 4.138-2.076 8.036-1.906 11.427.202 3.49.922 6.443 1.367 8.865.507 2.454.83 4.511.735 6.085-.067 1.522-.498 2.878-1.392 4.378-1.774 3.044-5.077 5.463-9.298 6.999-4.185 1.596-9.329 2.341-14.387 2.815-5.075.46-10.221.404-15.357-.061-5.135-.474-10.268-1.375-15.291-2.775-2.511-.698-5.012-1.478-7.46-2.412-1.241-.431-2.439-.961-3.659-1.454-.281-.091-.54-.219-.799-.345 1.271-2.077 2.3-4.416 2.874-7.026.717-3.161.566-6.72-.349-9.821-1.965-6.356-6.055-10.411-9.499-13.516-1.764-1.584-3.536-2.932-5.174-4.211-1.569-1.235-3.008-2.388-4.385-3.663-2.749-2.504-5.168-5.202-6.956-8.008-3.694-5.718-4.115-11.194-1.522-17.033 1.313-2.904 3.407-5.745 5.9-8.328 2.48-2.571 5.483-4.875 8.774-7.174 6.532-4.552 14.204-9.102 20.849-15.605 6.592-6.365 11.637-14.12 14.991-22.429 1.682-4.197 2.993-8.349 3.793-12.918.891-4.868.139-9.712-1.082-13.936-2.489-8.52-6.291-15.667-6.075-23.742.127-7.968 3.036-16.176 8.672-22.463-6.479 5.38-10.994 13.438-12.11 22.213-.587 4.366-.24 8.976.723 13.205.914 4.247 2.163 8.273 2.861 12.176.178.945.317 1.879.416 2.803l-.136-.195c-11.35 9.043-22.49 18.017-34.469 25.853-5.984 3.9-12.153 7.527-18.639 10.519-6.48 2.96-13.315 5.362-20.546 6.023 7.258.28 14.558-1.245 21.546-3.41 7.007-2.192 13.784-5.078 20.39-8.259 9.969-4.818 19.558-10.376 28.975-16.025-.671 1.533-1.375 3.061-2.151 4.506a62.277 62.277 0 0 1-14.577 17.94c-5.744 4.935-13.03 8.379-20.486 13.055-7.408 4.597-15.359 10.787-20.166 20.03-2.409 4.595-3.841 10.217-3.396 15.822.409 5.592 2.436 10.77 5.09 15.063 2.646 4.29 5.847 7.881 9.214 11.066-24.449-12.513-46.645-30.309-64.389-52.255l-.524.371c18.638 30.266 45.73 55.956 78.096 73.36-3.056 3.831-9.899 6.617-17.151 9.964l-22.905 10.49-11.378 5.42-5.689 2.71c-1.845.897-4.063 1.847-6.399 3.493-.574.411-1.151.871-1.712 1.384-8.142-9.443-15.514-19.598-21.74-30.569-7.503-13.189-13.38-27.462-17.734-42.305l-.628.133c2.034 15.369 5.695 30.689 11.314 45.473.762 2.013 1.679 4.041 2.668 6.074-2.649 8.905-3.783 17.078-8.646 24.837-15.916 3.073-32.111 1.915-47.476-1.485-7.634-1.784-15.226-4.177-21.88-7.564-3.194-1.725-6.128-3.892-7.857-6.25-1.741-2.358-2.097-4.489-1.345-6.488.719-2.056 2.834-4.271 5.327-5.568 2.656-1.437 6.034-2.262 9.853-3.139 7.911-1.786 17.069-4.125 24.933-10.752a27.312 27.312 0 0 0 5.51-6.474c7.224-7.532 14.434-15.504 20.203-24.529 5.914-9.137 9.949-19.506 11.024-29.921-3.538 9.891-9.554 18.328-16.816 25.218-3.646 3.486-7.567 6.649-11.665 9.633a42.053 42.053 0 0 0-.925-3.421c-1.479-4.596-3.489-8.536-5.422-12.237-1.967-3.726-4-7.268-5.909-10.731-3.776-6.948-7.303-13.458-8.818-20.177a36.708 36.708 0 0 1-.937-6.267c1.745-.48 3.837-.628 6.305-.339 3.301.324 7.025 1.274 11.019 2.143 3.956.896 8.527 1.633 12.906 1.536 4.384-.064 8.658-.717 12.735-1.804 8.17-2.164 15.558-5.998 22.224-10.466 6.69-4.476 12.749-9.576 18.785-14.653l-.375-.521c-6.728 4.114-13.472 8.223-20.485 11.508-6.994 3.295-14.287 5.705-21.607 6.487-3.647.4-7.274.379-10.749-.105-3.497-.476-6.654-1.49-10.223-2.872-3.552-1.341-7.287-2.977-11.72-4.15-1.705-.472-3.616-.795-5.603-.987 2.799-4.502 7.683-8.263 13.285-10.661 6.408-2.754 13.885-3.991 21.71-5.001 7.896-.976 15.927-1.707 23.988-2.613 8.059-.964 16.171-2.008 24.25-3.442 16.058-3.046 32.313-7.785 45.873-16.898-15.11 6.022-30.912 8.528-46.807 9.469-7.945.579-15.941.784-23.991.915-8.05.182-16.141.405-24.336.778-8.216.377-16.963 1.263-25.605 4.522-8.54 3.259-17.003 8.946-22.024 18.104-4.89 9.247-4.883 19.662-2.901 28.556 2.031 9.104 6.074 17.105 10.166 24.2 2.044 3.578 4.081 7.01 5.932 10.399 1.861 3.415 3.54 6.701 4.573 9.791 2.08 6.408 1.41 10.633-2.769 14.764-2.114 2.017-5.026 3.771-8.25 5.183-3.306 1.458-6.593 2.44-10.637 3.533-3.975 1.126-8.467 2.542-12.773 5.262-1.281.836-2.482 1.816-3.624 2.875-3.02-2.407-5.782-5.529-8.09-9.182-3.332-5.233-5.839-11.328-7.772-17.653l-.638.074c-.413 6.644-.27 13.465 1.164 20.421.536 2.59 1.351 5.213 2.348 7.816-9.629 11.15-22.992 24.697-36.284 24.21M396.253 959.1c-11.386 3.12-22.71 6.447-34.145 9.42-22.806 6.155-45.692 12.072-68.895 17.075 21.791-9.414 43.984-17.653 66.337-25.391 11.148-3.963 22.424-7.516 33.655-11.222l33.901-10.429 34.13-9.653c11.447-2.973 22.842-6.123 34.357-8.839 22.974-5.635 46.087-10.752 69.503-14.657-22.201 8.403-44.633 15.859-67.129 23.063-11.216 3.714-22.538 7.049-33.792 10.616l-33.905 10.199-34.017 9.818zm-46.356-194.352c12.503-3.651 25.128-6.83 37.731-10.109 12.639-3.129 25.337-6.013 38.034-8.901 12.747-2.66 25.501-5.283 38.294-7.705 12.829-2.24 25.632-4.603 38.523-6.466 25.745-3.91 51.621-7.018 77.661-8.607-25.339 6.195-50.718 11.69-76.078 17.196l-76.024 16.512-76.023 16.518c-25.359 5.514-50.728 11.055-76.349 15.95 24.354-9.349 49.186-17.256 74.231-24.388zm286.971-65.24c11.36-5.151 23.017-9.239 34.773-12.951 11.74-3.778 23.624-7.015 35.58-9.951 11.963-2.909 24.004-5.498 36.165-7.549 12.145-2.116 24.377-3.843 36.836-4.482-11.433 5.184-23.094 9.278-34.841 12.985-11.732 3.772-23.582 7.004-35.512 9.917-11.936 2.886-23.945 5.471-36.097 7.516-12.136 2.11-24.372 3.845-36.904 4.515zm314.989-93.327a354.024 354.024 0 0 1-27.53 11.006c-9.311 3.287-18.748 6.221-28.331 8.74-9.607 2.452-19.304 4.651-29.391 5.746 8.532-5.491 17.454-9.879 26.466-14.014 9.035-4.067 18.217-7.721 27.525-11.02a354.038 354.038 0 0 1 28.326-8.755c9.605-2.458 19.305-4.649 29.396-5.732-8.528 5.504-17.447 9.9-26.461 14.029zm-94.872 2.736c-39.411 13.842-79.505 25.101-119.395 36.771l-60.036 16.936c-20.071 5.44-40.083 11.084-60.212 16.323-40.196 10.691-80.501 21-121.114 30.24 39.327-13.718 78.96-26.368 118.703-38.635 19.841-6.24 39.798-12.075 59.697-18.115l59.873-17.501 60.012-16.949c20.02-5.518 39.911-11.372 59.757-17.337 39.644-12.079 78.685-25.993 116.463-43.553-35.615 21.671-74.37 38.109-113.748 51.82zm-656.38 188.537a88.706 88.706 0 0 1 14.048-4.282 87.164 87.164 0 0 1 14.557-1.933c4.951-.189 9.975-.044 15.236 1.2-4.275 3.311-8.787 5.523-13.372 7.401a87.054 87.054 0 0 1-14.051 4.267 88.737 88.737 0 0 1-14.561 1.918c-4.952.186-9.975.044-15.233-1.186 4.278-3.296 8.792-5.504 13.376-7.385zm50.21 27.106c15.225-5.188 30.55-10.027 46.006-14.404l23.256-6.315c7.807-1.912 15.562-4.007 23.428-5.715 15.673-3.617 31.453-6.86 47.537-9.042-14.812 6.635-29.927 12.209-45.149 17.408-7.582 2.7-15.275 5.014-22.915 7.51l-23.087 6.91c-15.439 4.44-31.009 8.417-46.679 12.046-15.673 3.62-31.454 6.858-47.541 9.026 14.808-6.648 29.921-12.227 45.144-17.424zm9.161 125.899c13.02-4.595 26.183-8.741 39.314-13.001 13.173-4.118 26.415-8.01 39.652-11.922 13.299-3.694 26.604-7.366 39.957-10.856 13.4-3.317 26.762-6.771 40.244-9.749 26.913-6.142 53.999-11.569 81.366-15.573-26.304 8.54-52.736 16.315-79.171 24.026l-79.321 22.906-79.445 22.473c-26.517 7.426-53.062 14.806-79.9 21.475 25.351-11.055 51.213-20.762 77.304-29.779zm283.803-78.354c16.055-6.735 32.399-12.403 48.843-17.697 8.195-2.747 16.495-5.107 24.745-7.65l24.908-7.047 25.066-6.465c8.411-1.948 16.766-4.102 25.232-5.849 16.873-3.707 33.849-7.031 51.116-9.281-16.052 6.748-32.393 12.422-48.839 17.713-8.194 2.752-16.497 5.097-24.746 7.648l-24.912 7.032-25.069 6.45c-8.409 1.957-16.768 4.096-25.232 5.847-16.874 3.706-33.849 7.035-51.112 9.299zm142.272.874c-11.772 3.123-23.64 5.997-35.881 7.959 10.668-6.318 21.79-11.499 33.087-16.199 11.276-4.765 22.786-8.89 34.425-12.601 11.648-3.685 23.434-6.939 35.397-9.54 11.942-2.664 24.022-4.824 36.387-5.778-11.138 5.449-22.494 9.935-33.918 14.156-11.403 4.285-22.912 8.154-34.485 11.828-11.583 3.648-23.22 7.116-35.012 10.175zm159.647-78.199c-11.897 3.045-23.823 5.965-35.877 8.528-12.037 2.629-24.147 5.062-36.596 6.636 11.033-5.984 22.518-10.761 34.176-14.993 11.642-4.298 23.512-7.891 35.503-11.005 11.998-3.088 24.126-5.681 36.393-7.553 12.251-1.937 24.615-3.304 37.169-3.389-11.655 4.657-23.43 8.389-35.238 11.906-11.791 3.583-23.641 6.798-35.53 9.87zm52.699-3.282c9.82-3.682 19.626-7.238 29.451-10.74a1766.81 1766.81 0 0 1 29.61-10.291c9.968-3.29 19.951-6.627 30.425-9.258-8.378 6.826-17.54 12.365-26.971 17.352a229.706 229.706 0 0 1-29.313 12.738c-10.045 3.568-20.327 6.473-30.775 8.627-10.463 2.085-21.061 3.586-31.865 3.599 9.784-4.563 19.634-8.275 29.438-12.027zm-27.122-448.045c.046-.152.085-.306.129-.459-.043.153-.083.307-.129.459zM684.513 505.907c.035-.102.079-.403.243-.722.154-.325.363-.626.592-.833.334-.334.779-.669 1.356-1.013 1.163-.692 2.859-1.338 4.861-2.103l5.881-2.262 11.762-4.524 23.374-9.399c3.878-1.613 7.741-2.96 12.095-5.136 3.559-1.831 7.442-4.44 10.589-8.113.442.312.94.526 1.383.825 1.203.67 2.391 1.38 3.629 1.992 2.442 1.296 4.966 2.444 7.529 3.512a107.94 107.94 0 0 1-3.172-1.391c5.331 5.812 7.784 8.808 1.816 13.866-16.268 4.288-32.71 7.679-49.11 11.017a578.291 578.291 0 0 1-24.608 4.289c-1.976.237-4.227.633-5.83.633-1.682.071-2.771-.45-2.56-.568.02-.096.16.055.17-.07zm12.05-329.38c-.562-7.88-.099-15.831 1.171-23.679a119.35 119.35 0 0 1 4.331-17.895c4.364-13.45 11.203-26.057 19.692-37.362 17.048-22.583 41.202-39.522 67.84-47.591l2.024 5.483c-12.189 5.398-23.592 12.275-33.874 20.474-10.31 8.15-19.505 17.637-27.169 28.182-7.715 10.519-13.754 22.192-18.446 34.37-2.557 6.662-4.608 13.512-6.291 20.495a196.475 196.475 0 0 0-3.435 17.722l-5.843-.199z"/><path fill="#F22F58" d="m1076.655 816.31-.288-43.561-.577-87.122-1.153-174.243-.288-43.561-.145-21.793c-.097-3.735.013-8.329-2.386-13.474a17.714 17.714 0 0 0-5.563-6.596c-.335-.241-.688-.432-1.034-.643-.638-1.044-1.495-1.973-2.608-2.658-59.216-36.397-123.435-64.634-190.354-83.275-.487 2.631-1.22 5.211-2.259 7.663-3.102 7.287-8.358 13.569-15 17.828 1.77 3.19 3.636 6.382 5.577 9.711 2.781 4.711 5.418 9.749 7.485 15.323 2.03 5.59 3.525 11.653 3.228 18.382-.431 6.522-2.37 13.036-6.474 18.774-2.055 2.845-4.716 5.454-7.919 7.417-3.205 2.009-7.006 3.167-9.769 3.691-2.842.584-5.144 1.032-6.496 1.612-1.366.623-1.548.871-1.954 1.611-.438.737-.776 2.367-.714 4.315.019 1.891.456 4.213.909 7.084.391 2.83.821 6.16.347 9.95-.458 3.836-2.062 7.636-4.242 10.538-4.38 5.878-10.874 9.249-16.932 10.657-6.157 1.44-11.842 1.458-17.504 1.316-5.673-.188-11.29-.94-16.771-2.136-5.48-1.202-10.834-2.853-15.962-4.993a107.94 107.94 0 0 1-3.172-1.391c5.331 5.812 7.784 8.808 1.816 13.866-7.72 3.368-15.631 6.321-23.595 9.07a506.377 506.377 0 0 1-24.08 7.765c-8.093 2.416-16.225 4.706-24.577 6.547-2.167.427-4.031.92-6.613 1.281-1.266.157-2.676.232-4.276.017-1.587-.216-3.489-.836-5.123-2.169a8.238 8.238 0 0 1-.918-.887l-.001.002-.006-.008a9.72 9.72 0 0 1-1.474-2.138c-7.527-10.937-16.949-23.26-22.84-35.368-2.649 8.905-3.783 17.078-8.646 24.837-7.572 2.882-15.683 4.599-23.86 5.251-8.188.75-16.469.556-24.701-.43-8.264-.94-16.406-2.749-24.494-5.98-4.068-1.722-8.173-3.894-11.744-7.673-1.765-1.884-3.319-4.308-4.163-7.153-.534-1.831-.711-3.812-.579-5.761-2.843-3.581-4.866-7.471-6.377-11.417-9.626 11.154-22.989 24.702-36.28 24.214l-3.684-11.957a30.318 30.318 0 0 0-8.19-9.038c-3.297-2.38-6.931-4.134-10.816-4.792-4.043-.782-8.201-1.173-12.466-1.596-4.259-.44-8.656-.864-13.096-1.938-4.42-1.06-9.021-2.646-13.214-5.654-4.169-2.957-7.803-7.719-8.818-13.444-.499-2.852-.371-6.086.774-9.011.854-2.374 2.307-4.52 4.013-6.27 1.749-13.818-2.005-27.575-9.837-37.68-2.21-2.87-4.916-5.777-7.351-9.494-2.41-3.64-4.382-8.693-4.166-13.944.074-2.644.694-5.522 2.226-8.21 1.491-2.719 4.088-4.97 6.541-6.246 4.943-2.581 9.214-2.865 11.655-3.999 1.235-.507 1.804-.991 2.073-1.366.237-.318.445-.855.532-1.787.218-1.886-.539-4.297-1.923-7.818-1.404-3.377-3.031-8.326-3.624-12.629-.661-4.425-.799-8.836-.486-13.237.606-8.724 3.115-17.797 9.204-25.569 6.055-7.422 13.65-12.068 21.212-15.559 7.633-3.438 15.399-5.82 23.146-7.794 3.867-1.021 7.778-1.74 11.65-2.491 3.887-.724 7.636-1.387 11.877-2.021 16.004-1.921 31.444-2.053 47.068-2.249 2.35-.026 4.699-.013 7.049-.012v.002a100.501 100.501 0 0 1-.913-7.979c-8.879-1.777-17.775-3.49-26.709-5.055-14.829-2.612-29.718-4.991-44.772-6.741-15.06-1.735-30.196-3.157-45.782-2.971a7.753 7.753 0 0 0-6.547 3.765l-.06.101c-12.288 20.546-25.161 40.821-38.24 60.976-13.04 20.183-26.309 40.241-39.719 60.216-26.819 39.951-54.136 79.605-81.606 119.166l-82.695 118.566c-13.774 19.785-27.529 39.59-41.13 59.553-6.799 9.985-13.557 20.007-20.205 30.172-3.319 5.091-6.613 10.208-9.839 15.463a246.527 246.527 0 0 0-4.776 8.075c-.569 1.044-1.134 2.076-1.699 3.161-.33.379-.697.718-1.006 1.116-1.23 1.674-2.092 3.498-2.781 5.351-.153.333-.298.711-.434 1.129-.101.318-.192.631-.279.949a27.536 27.536 0 0 0-.725 3.753c-.24 1.831-.335 3.631-.22 4.888l.07-.019c.352 8.179 2.899 15.099 5.571 21.641 2.978 7.066 6.545 13.668 9.936 20.027 1.759 3.201 3.117 6.079 4.343 9.232.676 1.531 1.285 3.093 1.745 4.72.49 1.613 1.07 3.192 1.497 4.829 1.737 6.548 2.723 13.355 3.326 20.251.46 6.932.525 13.952.271 21.034-.543 14.183-2.157 28.524-3.32 43.155-.6 7.271-1.03 14.783-1.149 22.109a971.22 971.22 0 0 0-.275 21.914c-.027 14.596.158 29.177.495 43.718.626 29.089 1.626 58.068 1.577 86.955-.067 14.438-.246 28.865-1.013 43.234a656.258 656.258 0 0 1-1.394 21.524l-.94 10.733c-.378 4.005-.511 8.281.504 12.933.538 2.327 1.385 4.852 3.151 7.35 1.706 2.494 4.696 4.757 7.823 5.6 3.259.99 6.364.585 8.644.08 2.38-.554 4.047-1.169 5.766-1.692l20.765-6.575 41.53-13.15 664.477-210.391 83.06-26.299 41.53-13.149 20.765-6.575c6.823-2.225 14.565-4.312 21.823-9.597 3.576-2.614 6.902-6.31 8.965-10.551 2.074-4.214 3.002-8.584 3.458-12.659.438-4.088.432-7.965.412-11.635l-.076-10.89zm-928.172 258.535a3.768 3.768 0 0 1 .046-1.753c-.014.585-.031 1.169-.046 1.753zm13.32-266.616c-.64-7.511-1.714-15.054-3.675-22.482-.483-1.854-1.132-3.676-1.696-5.515-.411-1.43-.937-2.825-1.503-4.208 8.301-2.615 16.605-4.96 24.712-7.527 4.685-1.483 9.308-3.055 13.81-4.819a164.151 164.151 0 0 0 6.697-2.801c2.393-1.065 4.834-1.996 7.288-2.865 9.859-3.43 19.901-5.222 29.505-7.307a443.34 443.34 0 0 0 28.611-7.22 440.784 440.784 0 0 0 28.05-9.117c9.233-3.292 18.311-7.131 27.658-10.803 18.592-7.296 37.393-14.202 56.455-20.413 38.135-12.423 76.892-21.974 114.939-33.02 9.516-2.752 18.986-5.605 28.385-8.622 9.383-2.884 18.173-6.372 27.285-10.276 9.05-3.879 18.215-8.035 27.783-11.674 4.715-1.816 9.815-3.521 14.474-4.974l14.219-4.537 56.876-18.148c9.534-3.011 18.836-6.079 28.561-9.044 9.695-2.928 19.445-5.49 29.181-7.886 19.478-4.786 38.891-8.917 57.86-14.029 9.479-2.559 18.865-5.309 28.029-8.541 9.093-3.201 18.302-6.953 27.47-10.641 18.347-7.44 36.681-15.325 55.466-22.491 9.389-3.584 18.888-6.993 28.531-10.077 4.822-1.543 9.688-2.978 14.577-4.354 4.929-1.303 9.864-2.571 14.561-3.926l28.569-7.989 14.352-4.032c5.011-1.344 10.275-2.903 16.993-2.704 3.292.136 7.338.928 10.899 3.497 3.588 2.544 5.7 6.293 6.812 9.569 2.064 6.862 1.795 11.87 1.85 17.243-.182 10.586-1.439 20.131-1.078 29.591.162 10.045.193 20.444-1.548 31.058-.877 5.295-2.115 10.675-4.36 15.948-2.229 5.219-5.167 10.494-9.592 14.768-4.361 4.253-9.727 7.546-15.378 9.421-4.955 1.663-9.547 3.043-14.338 4.578l-28.464 8.992-56.928 17.983-28.488 8.989c-9.626 3-19.295 5.731-28.945 8.329-19.299 5.218-38.539 10-57.34 15.725l-56.818 18.075c-37.944 12.028-75.804 24.269-113.651 36.547l-56.786 18.379c-18.883 6.09-37.891 12.391-57.033 18.066-38.205 11.546-76.254 22.036-112.478 38.12-10.369 4.176-20.743 4.872-30.232 6.544-9.217 1.526-18.705 4.669-28.025 7.67-9.367 3.095-18.567 6.561-28.037 9.947-9.432 3.348-18.91 6.523-28.407 9.597-18.995 6.149-38.068 11.882-57.055 17.768l-52.947 16.454c.024-1.109.019-2.221.047-3.33.128-7.206.545-14.244 1.147-21.45 1.156-14.342 2.822-28.863 3.413-43.652.278-7.403.229-14.875-.263-22.384zm734.594 36.826c-10.024 2.514-19.885 4.255-29.235 6.647-4.775 1.199-9.026 2.519-13.88 4.18l-14.232 4.745-113.944 37.734-114.304 36.983c-19.141 5.919-38.433 11.436-57.64 17.172-4.873 1.401-9.465 2.887-14.568 4.217l-14.633 3.483c-4.675 1.166-9.268 2.511-13.235 4.275-3.777 1.686-7.586 4.52-11.929 7.416-2.179 1.443-4.498 2.914-7.093 4.189-2.584 1.262-5.047 2.235-7.562 3.126-4.998 1.768-9.912 3.093-14.59 4.509-9.365 2.953-19.063 6.071-28.629 8.933a1861.21 1861.21 0 0 1-57.88 16.495c-9.714 2.625-19.417 5.005-28.903 7.741-9.538 2.724-19.034 5.675-28.5 8.758-18.931 6.184-37.732 12.899-56.597 19.585-9.446 3.336-18.867 6.682-28.466 9.836-9.671 3.156-19.453 5.743-29.224 8.113-17.753 4.318-35.483 8.049-52.73 13.065.281-9.411.405-18.82.462-28.22.091-29.166-.872-58.239-1.452-87.228-.06-2.777-.086-5.549-.134-8.324 35.631-12.024 71.155-25.273 107.701-35.406 38.24-11.14 75.961-24.266 113.99-36.835 9.563-3.154 18.888-6.293 28.715-9.337 9.788-2.905 19.369-5.218 27.945-8.825a73.182 73.182 0 0 0 3.148-1.407l3.394-1.622a260.066 260.066 0 0 1 6.986-3.211c4.735-2.086 9.666-3.994 14.696-5.56l28.793-8.739 28.632-8.698c9.522-2.969 19.167-5.636 28.453-8.866 9.401-3.186 18.948-6.626 28.97-9.339 2.489-.687 5.062-1.306 7.576-1.881a239.803 239.803 0 0 0 7.097-1.694c4.67-1.199 9.231-2.539 13.578-4.194a84.428 84.428 0 0 0 6.361-2.704l3.08-1.549c1.341-.687 2.692-1.334 4.059-1.878 5.47-2.2 10.923-3.273 15.987-4.125 5.086-.854 9.875-1.512 14.188-2.609 4.348-1.118 8.895-2.724 13.422-4.469 9.096-3.473 18.519-7.733 29.098-10.353 1.291-.331 2.718-.608 3.953-.885a45.089 45.089 0 0 0 3.152-.763c2.132-.583 4.329-1.334 6.588-2.153l7.007-2.604 3.71-1.315 3.463-1.156c8.557-3.023 17.211-8.024 27.07-12.086 5.598-2.273 11.323-3.219 16.523-3.811 5.218-.583 10.027-.91 14.338-1.738a52.484 52.484 0 0 0 3.131-.706l3.389-.974a152.37 152.37 0 0 0 6.815-2.235c4.564-1.597 9.176-3.391 13.907-5.169 4.679-1.772 9.704-3.56 14.522-5.058l14.301-4.535 114.447-36.153 3.55-1.125a60.043 60.043 0 0 0 3.081-1.119c2.153-.843 4.415-1.827 6.688-2.805 4.556-1.976 9.244-4.023 14.08-5.912 4.862-1.869 9.852-3.645 15.285-4.894 5.432-1.137 11.311-2.252 18.363-.483 3.463.893 7.197 2.919 9.845 5.924 2.646 2.968 4.242 6.506 4.978 9.685.805 3.17 1.028 6.398 1.072 9.08.049 2.589.054 5.169.014 7.74-.148 10.287-.884 20.41-1.639 30.399-.751 9.985-1.539 19.855-1.805 29.607l-.116 7.307c-.006 2.551-.018 5.354-.419 8.417-.401 3.04-1.232 6.448-3.064 9.696-.93 1.625-1.955 2.833-2.99 4.211-1.144 1.139-2.251 2.443-3.488 3.386-4.894 4.052-10.195 6.444-15.326 8.323-5.155 1.853-10.26 3.145-15.238 4.299-4.958 1.152-9.873 2.149-14.254 3.371l-14.24 4.42-28.57 8.913-14.285 4.456c-4.643 1.454-9.832 3.112-14.809 4.316z"/><path fill="#F26573" d="M124.539 718.865c-.101.318-.192.631-.279.949.088-.334.18-.649.279-.949zM1076.728 827.2c.02 3.67.026 7.547-.412 11.635-.455 4.076-1.383 8.446-3.458 12.659-2.063 4.241-5.388 7.937-8.965 10.551-7.258 5.285-15 7.372-21.823 9.597l-20.765 6.575-41.53 13.149-83.06 26.299-664.477 210.391-41.53 13.15-20.765 6.575c-1.719.524-3.386 1.138-5.766 1.692-2.281.505-5.385.91-8.644-.08-3.127-.843-6.117-3.105-7.823-5.6-1.766-2.498-2.613-5.023-3.151-7.35-1.015-4.652-.882-8.928-.504-12.933l.94-10.733a656.437 656.437 0 0 0 1.394-21.524c.767-14.369.946-28.796 1.013-43.234.048-28.886-.952-57.865-1.577-86.955-.338-14.54-.523-29.121-.495-43.718a971.22 971.22 0 0 1 .275-21.914c.118-7.326.549-14.838 1.149-22.109 1.163-14.631 2.777-28.971 3.32-43.155.254-7.081.189-14.101-.271-21.034-.603-6.896-1.589-13.703-3.326-20.251-.427-1.638-1.007-3.217-1.497-4.829-.46-1.627-1.069-3.189-1.745-4.72-1.226-3.152-2.584-6.03-4.343-9.232-3.391-6.359-6.958-12.961-9.936-20.027-2.672-6.542-5.22-13.462-5.571-21.641l59.539-16.224 72.456-20.517c24.175-6.766 48.226-13.927 72.287-21.057l72.168-21.437 71.955-22.118c48.044-14.508 95.732-30.153 143.575-45.304 23.943-7.507 47.705-15.59 71.547-23.421 23.802-7.956 47.701-15.605 71.424-23.813l71.238-24.406 71.019-25.106c23.628-8.512 47.142-17.388 70.719-26.064l35.343-13.085 35.154-13.687.061-.023a.93.93 0 0 0-.619-1.756L466.308 609.58l-287.193 90.47-53.747 16.931c-.138.203-.267.477-.395.755.689-1.852 1.551-3.676 2.781-5.351.309-.398.676-.737 1.006-1.116.564-1.084 1.129-2.117 1.699-3.161a247.586 247.586 0 0 1 4.776-8.075c3.226-5.255 6.519-10.372 9.839-15.463 6.648-10.164 13.406-20.187 20.205-30.172 13.601-19.963 27.356-39.768 41.13-59.553l82.695-118.566c27.471-39.562 54.788-79.215 81.606-119.166 13.41-19.975 26.679-40.033 39.719-60.216 13.079-20.155 25.953-40.431 38.24-60.976l.06-.101a7.753 7.753 0 0 1 6.547-3.765c15.586-.186 30.721 1.236 45.782 2.971 15.054 1.751 29.943 4.13 44.772 6.741 8.934 1.565 17.83 3.278 26.709 5.055.192 2.669.508 5.33.913 7.979v-.002c-2.35 0-4.699-.013-7.049.012-15.624.196-31.063.328-47.068 2.249-4.242.633-7.99 1.297-11.877 2.021-3.871.751-7.783 1.47-11.65 2.491-7.747 1.974-15.513 4.357-23.146 7.794-7.562 3.491-15.157 8.138-21.212 15.559-6.089 7.772-8.599 16.845-9.204 25.569-.313 4.402-.175 8.813.486 13.237.593 4.304 2.22 9.253 3.624 12.629 1.383 3.522 2.141 5.932 1.923 7.818-.087.932-.295 1.469-.532 1.787-.269.375-.838.859-2.073 1.366-2.441 1.134-6.712 1.417-11.655 3.999-2.453 1.276-5.05 3.527-6.541 6.246-1.531 2.688-2.152 5.566-2.226 8.21-.215 5.25 1.757 10.303 4.166 13.944 2.435 3.717 5.141 6.624 7.351 9.494 7.832 10.104 11.587 23.861 9.837 37.68-1.706 1.75-3.159 3.896-4.013 6.27-1.144 2.925-1.272 6.159-.774 9.011 1.015 5.726 4.649 10.487 8.818 13.444 4.193 3.007 8.794 4.593 13.214 5.654 4.439 1.074 8.837 1.498 13.096 1.938 4.266.424 8.424.814 12.466 1.596 3.885.658 7.519 2.412 10.816 4.792a30.305 30.305 0 0 1 8.19 9.038l3.684 11.957c13.291.488 26.654-13.06 36.28-24.214 1.511 3.947 3.534 7.837 6.377 11.417-.132 1.949.046 3.929.579 5.761.843 2.845 2.397 5.269 4.163 7.153 3.57 3.779 7.676 5.951 11.744 7.673 8.088 3.231 16.231 5.04 24.494 5.98 8.231.986 16.513 1.18 24.701.43 8.177-.652 16.288-2.369 23.86-5.251 4.863-7.758 5.997-15.932 8.646-24.837 5.891 12.108 15.313 24.431 22.84 35.368a9.72 9.72 0 0 0 1.474 2.138l.006.008.001-.002c.292.317.591.627.918.887 1.634 1.333 3.536 1.953 5.123 2.169 1.6.215 3.01.14 4.276-.017 2.582-.361 4.446-.854 6.613-1.281 8.352-1.841 16.484-4.131 24.577-6.547a506.746 506.746 0 0 0 24.08-7.765c7.964-2.749 15.875-5.703 23.595-9.07 5.968-5.057 3.515-8.054-1.816-13.866 1.05.477 2.105.946 3.172 1.391 5.128 2.14 10.481 3.791 15.962 4.993 5.481 1.196 11.097 1.948 16.771 2.136 5.661.141 11.347.124 17.504-1.316 6.058-1.408 12.552-4.779 16.932-10.657 2.18-2.902 3.784-6.702 4.242-10.538.474-3.79.045-7.12-.347-9.95-.454-2.871-.89-5.193-.909-7.084-.062-1.948.276-3.578.714-4.315.406-.741.589-.988 1.954-1.611 1.352-.58 3.654-1.028 6.496-1.612 2.763-.524 6.564-1.682 9.769-3.691 3.203-1.963 5.864-4.572 7.919-7.417 4.104-5.738 6.043-12.253 6.474-18.774.297-6.728-1.198-12.792-3.228-18.382-2.067-5.574-4.704-10.612-7.485-15.323-1.94-3.329-3.807-6.521-5.577-9.711 6.643-4.259 11.898-10.54 15-17.828 1.039-2.452 1.772-5.032 2.259-7.663 66.918 18.641 131.138 46.878 190.354 83.275 1.114.685 1.971 1.614 2.608 2.658.346.211.699.402 1.034.643a17.74 17.74 0 0 1 5.563 6.596c2.399 5.146 2.289 9.739 2.386 13.474l.145 21.793.288 43.561 1.153 174.243.577 87.122.288 43.561.076 10.888zM353.811 435.609a.737.737 0 0 0-1.026.178 5092.9 5092.9 0 0 0-36.194 52.074l-35.989 52.214-35.578 52.495a5136.327 5136.327 0 0 0-35.376 52.633.736.736 0 0 0 1.103.957l.129-.115c16.262-14.489 30.457-30.391 43.925-46.79 6.929-8.066 13.107-16.645 19.639-24.983 6.307-8.492 12.304-17.195 18.471-25.782 5.794-8.842 11.678-17.622 17.342-26.553 5.38-9.125 11.158-17.977 16.148-27.369 10.394-18.5 20.044-37.508 27.612-57.939l.061-.163a.737.737 0 0 0-.267-.857zm-205.282 637.484a3.794 3.794 0 0 0-.046 1.753c.015-.585.032-1.169.046-1.753zm13.539-242.482c-.592 14.789-2.257 29.31-3.413 43.652-.602 7.206-1.019 14.244-1.147 21.45-.027 1.109-.023 2.221-.047 3.33l52.947-16.454c18.987-5.886 38.06-11.619 57.055-17.768 9.497-3.074 18.975-6.249 28.407-9.597 9.47-3.385 18.67-6.851 28.037-9.947 9.32-3.001 18.807-6.145 28.025-7.67 9.489-1.671 19.864-2.367 30.232-6.544 36.224-16.084 74.273-26.575 112.478-38.12 19.143-5.674 38.15-11.975 57.033-18.066l56.786-18.379c37.848-12.277 75.708-24.519 113.651-36.547l56.818-18.075c18.801-5.725 38.041-10.506 57.34-15.725 9.651-2.598 19.319-5.33 28.945-8.329l28.488-8.989 56.928-17.983 28.464-8.992c4.791-1.535 9.382-2.915 14.338-4.578 5.651-1.875 11.017-5.167 15.378-9.421 4.424-4.273 7.363-9.549 9.592-14.768 2.245-5.272 3.483-10.652 4.36-15.948 1.741-10.614 1.71-21.012 1.548-31.058-.361-9.46.896-19.006 1.078-29.591-.056-5.373.214-10.381-1.85-17.243-1.111-3.276-3.223-7.025-6.812-9.569-3.562-2.568-7.607-3.36-10.899-3.497-6.718-.2-11.982 1.36-16.993 2.704l-14.352 4.032-28.569 7.989c-4.697 1.354-9.632 2.622-14.561 3.926-4.889 1.376-9.755 2.811-14.577 4.354-9.643 3.085-19.142 6.493-28.531 10.077-18.785 7.166-37.118 15.051-55.466 22.491-9.168 3.688-18.378 7.44-27.47 10.641-9.164 3.232-18.55 5.982-28.029 8.541-18.97 5.111-38.383 9.242-57.86 14.029-9.736 2.396-19.486 4.959-29.181 7.886-9.725 2.965-19.027 6.033-28.561 9.044l-56.876 18.148-14.219 4.537c-4.659 1.453-9.759 3.158-14.474 4.974-9.568 3.639-18.733 7.795-27.783 11.674-9.111 3.904-17.902 7.392-27.285 10.276-9.399 3.017-18.868 5.87-28.385 8.622-38.047 11.046-76.804 20.597-114.939 33.02-19.062 6.211-37.863 13.117-56.455 20.413-9.347 3.672-18.424 7.511-27.658 10.803a441.421 441.421 0 0 1-28.05 9.117c-9.452 2.714-19 5.141-28.611 7.22-9.604 2.086-19.646 3.877-29.505 7.307-2.454.869-4.896 1.8-7.288 2.865a165.578 165.578 0 0 1-6.697 2.801c-4.502 1.764-9.125 3.336-13.81 4.819-8.107 2.566-16.411 4.912-24.712 7.527.566 1.383 1.092 2.778 1.503 4.208.563 1.839 1.213 3.66 1.696 5.515 1.961 7.428 3.035 14.971 3.675 22.482.49 7.511.539 14.983.263 22.384zm548.965 122.385a.332.332 0 0 0-.186-.431l-.232-.092c-3.885-1.539-7.389-1.877-10.757-1.785-3.391.02-6.593.636-9.683 1.607-3.08 1.001-6.055 2.338-8.838 4.278-2.806 1.867-5.479 4.154-7.775 7.634l-.137.208a.333.333 0 0 0 .363.503c6.272-1.65 12.423-3.683 18.639-5.512 6.136-2.081 12.336-3.96 18.414-6.222a.329.329 0 0 0 .192-.188zm155.926-46.591a.545.545 0 0 0-.511-.577l-.181-.011c-11.784-.722-23.044.373-34.116 2.118-5.588.692-10.978 2.071-16.468 3.103-5.419 1.28-10.782 2.752-16.168 4.145-5.292 1.719-10.627 3.289-15.883 5.13-5.2 2.037-10.489 3.766-15.589 6.15-10.298 4.428-20.413 9.49-30.008 16.356l-.148.106a.545.545 0 0 0 .458.97c21.505-5.706 42.844-11.99 64.271-17.965 21.317-6.357 42.723-12.407 63.961-19.038a.546.546 0 0 0 .382-.487zm44.246-65.665 14.285-4.456 28.57-8.913 14.24-4.42c4.38-1.222 9.296-2.219 14.254-3.371 4.978-1.154 10.083-2.446 15.238-4.299 5.132-1.879 10.432-4.271 15.326-8.323 1.237-.943 2.344-2.247 3.488-3.386 1.035-1.378 2.06-2.586 2.99-4.211 1.831-3.248 2.662-6.655 3.064-9.696.401-3.063.413-5.867.419-8.417l.116-7.307c.266-9.753 1.054-19.623 1.805-29.607.755-9.989 1.49-20.112 1.639-30.399.04-2.571.035-5.151-.014-7.74-.044-2.682-.267-5.91-1.072-9.08-.735-3.179-2.332-6.717-4.978-9.685-2.648-3.006-6.382-5.031-9.845-5.924-7.051-1.769-12.93-.653-18.363.483-5.433 1.25-10.422 3.025-15.285 4.894-4.836 1.889-9.525 3.936-14.08 5.912-2.272.978-4.535 1.962-6.688 2.805-1.074.42-2.116.802-3.081 1.119l-3.55 1.125-114.447 36.153-14.301 4.535c-4.818 1.498-9.843 3.286-14.522 5.058-4.731 1.778-9.343 3.571-13.907 5.169a152.37 152.37 0 0 1-6.815 2.235l-3.389.974a52.484 52.484 0 0 1-3.131.706c-4.31.829-9.12 1.156-14.338 1.738-5.2.592-10.925 1.537-16.523 3.811-9.858 4.062-18.513 9.064-27.07 12.086l-3.463 1.156-3.71 1.315-7.007 2.604c-2.259.819-4.457 1.57-6.588 2.153-1.07.305-2.116.544-3.152.763-1.235.277-2.662.554-3.953.885-10.579 2.62-20.003 6.88-29.098 10.353-4.528 1.745-9.074 3.351-13.422 4.469-4.313 1.097-9.102 1.755-14.188 2.609-5.064.852-10.518 1.925-15.987 4.125-1.366.544-2.718 1.19-4.059 1.878l-3.08 1.549a84.428 84.428 0 0 1-6.361 2.704c-4.348 1.655-8.909 2.995-13.578 4.194a241.317 241.317 0 0 1-7.097 1.694c-2.514.575-5.087 1.194-7.576 1.881-10.021 2.713-19.569 6.153-28.97 9.339-9.286 3.23-18.931 5.898-28.453 8.866l-28.632 8.698-28.793 8.739c-5.03 1.565-9.961 3.473-14.696 5.56a260.066 260.066 0 0 0-6.986 3.211l-3.394 1.622a71.97 71.97 0 0 1-3.148 1.407c-8.576 3.607-18.157 5.92-27.945 8.825-9.827 3.044-19.152 6.183-28.715 9.337-38.029 12.57-75.75 25.695-113.99 36.835-36.546 10.133-72.069 23.381-107.701 35.406.049 2.775.074 5.547.134 8.324.58 28.989 1.542 58.062 1.452 87.228-.057 9.4-.181 18.809-.462 28.22 17.247-5.016 34.977-8.746 52.73-13.065 9.772-2.37 19.553-4.957 29.224-8.113 9.599-3.153 19.02-6.5 28.466-9.836 18.865-6.686 37.666-13.401 56.597-19.585 9.466-3.083 18.962-6.034 28.5-8.758 9.486-2.735 19.189-5.115 28.903-7.741a1860.423 1860.423 0 0 0 57.88-16.495c9.566-2.862 19.264-5.981 28.629-8.933 4.678-1.416 9.592-2.741 14.59-4.509 2.516-.892 4.978-1.864 7.562-3.126 2.595-1.275 4.914-2.746 7.093-4.189 4.343-2.896 8.152-5.729 11.929-7.416 3.966-1.764 8.56-3.109 13.235-4.275l14.633-3.483c5.103-1.33 9.695-2.817 14.568-4.217 19.207-5.736 38.498-11.253 57.64-17.172l114.304-36.983 113.944-37.734 14.232-4.745c4.854-1.661 9.105-2.981 13.88-4.18 9.35-2.392 19.211-4.132 29.235-6.647 4.978-1.205 10.167-2.863 14.809-4.316zm145.501-91.948c-.68-27.391-1.911-54.755-1.5-82.126a.557.557 0 0 0-1.106-.098l-.013.077c-4.466 27.367-5.392 55.061-6.202 82.335-.586 13.657-.631 27.226-1.412 40.724-.475 13.502-1.289 26.176-6.505 35.54-4.844 9.621-14.414 16.743-25.737 22.177-11.276 5.707-24.177 9.322-37.239 14.069-26.123 9.191-51.555 20.38-75.396 34.48l-.067.04a.557.557 0 0 0 .494.995 792.715 792.715 0 0 1 77.464-27.082c13.114-3.819 26.482-7.246 39.097-12.924 6.287-2.839 12.38-6.257 17.814-10.623 5.429-4.346 10.147-9.708 13.458-15.903 6.585-12.619 6.918-26.995 7.162-40.56.209-13.715.034-27.425-.312-41.121zm-932.983-26.527c-.075.44-.138.867-.189 1.302.057-.435.116-.87.189-1.302z"/></svg>